<svg xmlns="http://www.w3.org/2000/svg">
  <defs>
    <symbol id="icon-logo" xmlns="http://www.w3.org/2000/svg" fill="none" viewBox="0 0 28 28">
        <g clip-path="url(#a)">
            <path fill="#FFDA44" d="M14 28c7.732 0 14-6.268 14-14S21.732 0 14 0 0 6.268 0 14s6.268 14 14 14Z"/>
            <path fill="#338AF3" d="M0 14C0 6.268 6.268 0 14 0s14 6.268 14 14"/>
        </g>
        <defs>
        <clipPath id="a">
            <path fill="#fff" d="M0 0h28v28H0z"/>
        </clipPath>
        </defs>
    </symbol>

    <symbol id="icon-log-in" fill="none">
        <g stroke="#F4C550" stroke-linecap="round" stroke-linejoin="round" stroke-width="2">
            <path d="M12.5 2.5h1c1.4 0 2.1 0 2.635.272a2.5 2.5 0 0 1 1.092 1.093C17.5 4.4 17.5 5.1 17.5 6.5v7c0 1.4 0 2.1-.273 2.635a2.5 2.5 0 0 1-1.092 1.092c-.535.273-1.235.273-2.635.273h-1M8.333 5.833 12.5 10m0 0-4.167 4.167M12.5 10h-10"/>
        </g>
    </symbol>
    
    <symbol id="icon-burger-menu" fill="none" viewBox="0 0 24 24">
        <g clip-path="url(#a)">
            <path stroke-linecap="round" stroke-linejoin="round" stroke-width="2.5" d="M3 6h18M3 12h18M3 18h18"/>
        </g>
        <defs>
            <clipPath id="a">
                <path fill="#fff" d="M0 0h24v24H0z"/>
            </clipPath>
        </defs>
    </symbol>

    <symbol id="icon-close" fill="none" viewBox="0 0 32 32">
        <path stroke-linecap="round" stroke-linejoin="round" stroke-width="2.5" d="M24 8 8 24M8 8l16 16"/>
    </symbol>
    
    <symbol id="icon-eye-closed" fill="none" viewBox="0 0 20 20">
        <g stroke-linecap="round" stroke-linejoin="round" stroke-width="2" clip-path="url(#a)">
            <path d="M14.95 14.95A8.391 8.391 0 0 1 10 16.667C4.167 16.667.833 10 .833 10A15.375 15.375 0 0 1 5.05 5.05m3.2-1.517a7.6 7.6 0 0 1 1.75-.2c5.833 0 9.167 6.667 9.167 6.667a15.42 15.42 0 0 1-1.8 2.658m-5.6-.891a2.501 2.501 0 0 1-4.329-1.749 2.5 2.5 0 0 1 .795-1.785M.833.833l18.334 18.334"/>
        </g>
        <defs>
            <clipPath id="a">
                <path fill="#fff" d="M0 0h20v20H0z"/>
            </clipPath>
        </defs>
    </symbol>
    
    <symbol id="icon-pc-screen" fill="none" viewBox="0 0 391 176">
        <g clip-path="url(#clip0_1982_11)">
            <path d="M7.05786 0C3.51331 0 0.640015 2.87903 0.640015 6.43046V240.821C0.640015 244.372 3.51331 247.251 7.05786 247.251H353.942C357.487 247.251 360.36 244.372 360.36 240.821V6.43046C360.36 2.87903 357.487 0 353.942 0H7.05786Z" fill="url(#paint0_linear_1982_11)"/>
            <path d="M192.091 66.3851C192.091 69.1751 191.092 71.78 189.101 74.1909C186.698 77.0572 183.792 78.7134 180.641 78.4521C180.601 78.1175 180.577 77.7652 180.577 77.3949C180.577 74.7168 181.72 71.8504 183.749 69.5069C184.762 68.3203 186.05 67.3338 187.613 66.5467C189.172 65.7713 190.646 65.3425 192.033 65.2692C192.051 65.4351 192.065 65.6009 192.074 65.7664C192.085 65.9733 192.091 66.1797 192.091 66.3851Z" fill="url(#paint1_linear_1982_11)"/>
            <path d="M202.639 108.742C201.812 110.691 200.834 112.485 199.7 114.134C198.155 116.383 196.889 117.939 195.914 118.803C194.402 120.222 192.782 120.949 191.048 120.99C189.803 120.99 188.301 120.628 186.553 119.895C184.799 119.165 183.188 118.803 181.714 118.803C180.169 118.803 178.511 119.165 176.738 119.895C174.962 120.628 173.532 121.011 172.438 121.049C170.775 121.121 169.117 120.374 167.462 118.803C166.406 117.863 165.085 116.252 163.502 113.969C161.804 111.531 160.408 108.704 159.315 105.481C158.143 102 157.556 98.6288 157.556 95.3651C157.556 91.6267 158.348 88.4023 159.934 85.7004C161.18 83.5299 162.838 81.818 164.913 80.5612C166.988 79.3043 169.23 78.6639 171.644 78.6229C172.965 78.6229 174.698 79.0399 176.85 79.8593C178.997 80.6816 180.376 81.0985 180.98 81.0985C181.432 81.0985 182.963 80.6111 185.559 79.6389C188.014 78.7376 190.086 78.3643 191.784 78.5113C196.383 78.89 199.838 80.7401 202.136 84.0735C198.023 86.6167 195.988 90.1788 196.029 94.7484C196.066 98.3079 197.331 101.27 199.818 103.622C200.945 104.713 202.204 105.557 203.604 106.156C203.301 107.055 202.98 107.916 202.639 108.742Z" fill="url(#paint2_linear_1982_11)"/>
        </g>
        <defs>
            <linearGradient id="paint0_linear_1982_11" x1="180.5" y1="0" x2="180.5" y2="247.251" gradientUnits="userSpaceOnUse">
                <stop stop-color="#EEB055"/>
                <stop offset="1" stop-color="#D08F38"/>
            </linearGradient>
            <linearGradient id="paint1_linear_1982_11" x1="180.58" y1="65.2692" x2="180.58" y2="121.053" gradientUnits="userSpaceOnUse">
                <stop stop-color="#FBE9BA"/>
                <stop offset="1" stop-color="#E7C885"/>
            </linearGradient>
            <linearGradient id="paint2_linear_1982_11" x1="180.58" y1="65.2692" x2="180.58" y2="121.053" gradientUnits="userSpaceOnUse">
                <stop stop-color="#FBE9BA"/>
                <stop offset="1" stop-color="#E7C885"/>
            </linearGradient>
            <clipPath id="clip0_1982_11">
                <rect width="359.72" height="304" fill="white" transform="translate(0.640015)"/>
            </clipPath>
        </defs>
    </symbol>
    <symbol id="dashed-border">
        <rect width="99%" height="98%" x="2px" y="1px" rx="30" padding="2px"/>
    </symbol>
    <symbol id="icon-elipse" viewBox="0 0 12 12" fill="none">
        <circle cx="6" cy="6" r="6" fill="white"/>
        <circle cx="6" cy="6" r="4" fill="#38CD3E"/>
    </symbol>
    <symbol id='icon-book-opened' fill="none" viewBox="0 0 16 16">
        <path stroke="#000" stroke-linecap="round" stroke-linejoin="round" stroke-width="1.5" d="M14.667 4.133c0-.746 0-1.12-.146-1.405a1.333 1.333 0 0 0-.582-.583C13.653 2 13.28 2 12.533 2h-.266c-1.494 0-2.24 0-2.811.29-.502.256-.91.664-1.165 1.166C8 4.026 8 4.773 8 6.266V14l.067-.1c.463-.695.694-1.042 1-1.293.271-.223.583-.39.919-.492.378-.115.796-.115 1.63-.115h.917c.747 0 1.12 0 1.406-.145.25-.128.454-.332.582-.583.146-.285.146-.659.146-1.405V4.133ZM1.333 4.133c0-.746 0-1.12.146-1.405.127-.25.331-.455.582-.583C2.346 2 2.72 2 3.467 2h.266c1.494 0 2.24 0 2.81.29.503.256.91.664 1.166 1.166.29.57.29 1.317.29 2.81V14l-.066-.1c-.463-.695-.694-1.042-1-1.293a2.665 2.665 0 0 0-.919-.492C5.635 12 5.218 12 4.384 12h-.917c-.747 0-1.12 0-1.406-.145a1.334 1.334 0 0 1-.582-.583c-.146-.285-.146-.659-.146-1.405V4.133Z"/>
    </symbol>
    <symbol id="icon-star" fill="none" viewBox="0 0 16 16">
        <g clip-path="url(#a)">
            <path fill="#FFC531" stroke="#FFC531" stroke-width="1.2" d="M6.2 4.697 8 1.286l1.8 3.411c.159.302.45.512.785.57l3.8.658-2.688 2.766a1.1 1.1 0 0 0-.3.923l.55 3.818-3.462-1.702a1.1 1.1 0 0 0-.97 0l-3.462 1.702.55-3.818a1.1 1.1 0 0 0-.3-.923L1.614 5.925l3.8-.657a1.1 1.1 0 0 0 .786-.571Zm8.318 1.092ZM3.883 13.515Z"/>
        </g>
        <defs>
            <clipPath id="a">
                <path fill="#fff" d="M0 0h16v16H0z"/>
            </clipPath>
        </defs>
    </symbol>
    <symbol id='icon-heart' fill="none" viewBox="0 0 26 26">
        <path stroke="#121417" stroke-linecap="round" stroke-linejoin="round" stroke-width="2" d="M22.577 4.994a5.959 5.959 0 0 0-8.429 0L13 6.143l-1.148-1.149a5.96 5.96 0 1 0-8.429 8.428l1.149 1.149L13 22.999l8.428-8.428 1.149-1.149a5.96 5.96 0 0 0 0-8.428Z"/>
    </symbol>
    <svg id='icon-heart-filled' viewBox="0 0 26 26" fill="none">
        <path 
            d="M21.5766 2.99419C21.0233 2.44061 20.3663 2.00147 19.6433 1.70187C18.9202 1.40226 18.1452 1.24805 17.3625 1.24805C16.5798 1.24805 15.8047 1.40226 15.0817 1.70187C14.3586 2.00147 13.7016 2.44061 13.1483 2.99419L12 4.14252L10.8516 2.99419C9.73397 1.87652 8.21809 1.24863 6.63747 1.24863C5.05685 1.24863 3.54097 1.87652 2.4233 2.99419C1.30563 4.11186 0.677734 5.62774 0.677734 7.20836C0.677734 8.78898 1.30563 10.3049 2.4233 11.4225L3.57163 12.5709L12 20.9992L20.4283 12.5709L21.5766 11.4225C22.1302 10.8692 22.5693 10.2122 22.869 9.48916C23.1686 8.76608 23.3228 7.99105 23.3228 7.20836C23.3228 6.42566 23.1686 5.65064 22.869 4.92756C22.5693 4.20448 22.1302 3.54751 21.5766 2.99419Z" 
            fill="#F4C550" 
            stroke="#F4C550" 
            stroke-linecap="round" 
            stroke-linejoin="round"
        />
    </svg>
    <symbol id='icon-arrow' viewBox="0 0 20 20" fill="none">
        <path d="M5 7.5L10 12.5L15 7.5" stroke="#121417" stroke-width="2" stroke-linecap="round" stroke-linejoin="round"/>
    </symbol>
    <symbol id="icon-avatar-default" xml:space="preserve" viewBox="0 0 512 512">
        <circle cx="256" cy="114.526" r="114.526"/>
        <path d="M256 256c-111.619 0-202.105 90.487-202.105 202.105 0 29.765 24.13 53.895 53.895 53.895h296.421c29.765 0 53.895-24.13 53.895-53.895C458.105 346.487 367.619 256 256 256z"/>
    </symbol>
  </defs>
</svg>